# xmcd CD database file
#
# Track frame offsets:
#	150
#	14002
#	27780
#	38545
#	64127
#	75992
#	88845
#	99390
#	114322
#	126395
#	144097
#	172582
#	200022
#	235220
#	255262
#
# Disc length: 3675 seconds
#
# Revision: 1
# Processed by: cddbd v1.4PL0 Copyright (c) Steve Scherf et al.
# Submitted via: CDex 1.50beta8
#
DISCID=b20e590f
DTITLE=Savoy Jazz - Savoy 60th Anniversary - Timeless {Disc One}
DYEAR=2002
DGENRE=Jazz
TTITLE0=[Charlie Parker] - Parker's Mood
TTITLE1=[Dexter Gordon] - Long Tall Dexter
TTITLE2=[Miles David] - Sippin' at Bells
TTITLE3=[Dizzy Gillespie] - The Champ Parts 1 and 2
TTITLE4=[Stan Getz] - Don't Worry 'Bout Me
TTITLE5=[Kenny Dorham] - Bebop in Pastel
TTITLE6=[Fats Navarro] - Fat Girl
TTITLE7=[Lennie Tristano] - Supersonic
TTITLE8=[Art Pepper] - These Foolish Things (Remind me of You)
TTITLE9=[JJ Johnson and Kai Winding] - Bernie's Tune
TTITLE10=[Charles Mingus] - Tea For Two
TTITLE11=[Cannonball Adderly] - Bohemia After Dark
TTITLE12=[Donald Bird] - Star Eyes
TTITLE13=[Lee Morgan] - P.S. I Love You
TTITLE14=[John Coltrane] - B.J
EXTD=YEAR: 2002
EXTT0=
EXTT1=
EXTT2=
EXTT3=
EXTT4=
EXTT5=
EXTT6=
EXTT7=
EXTT8=
EXTT9=
EXTT10=
EXTT11=
EXTT12=
EXTT13=
EXTT14=
PLAYORDER=
